<svg width="282" height="339" viewBox="115 15 282 339" xmlns="http://www.w3.org/2000/svg"><path fill-rule="evenodd" clip-rule="evenodd" d="M386.849 22.6116C384.595 23.9832 373.527 30.6341 362.256 37.3917C350.984 44.1492 334.959 53.7893 326.646 58.8145C318.333 63.8398 310.264 68.6836 308.714 69.5792C307.164 70.4743 295.29 77.6141 282.327 85.4455C251.078 104.325 251.375 104.148 250.796 104.148C250.384 104.148 198.67 78.0199 195.226 76.0714C193.671 75.1922 163.628 59.5754 158.079 56.7625C155.402 55.4053 147.909 51.4785 141.428 48.0365C129.069 41.4736 121.395 37.5413 120.944 37.5413C120.797 37.5413 120.677 97.7181 120.677 171.268C120.677 244.817 120.805 304.994 120.96 304.994C121.116 304.994 127.283 301.226 134.666 296.62C142.048 292.014 151.489 286.22 155.646 283.743L163.203 279.24V194.287V109.332L172.554 114.097C177.696 116.718 193.663 124.966 208.035 132.426C254.443 156.515 250.68 154.685 252.037 153.828C262.578 147.18 275.71 139.062 286.426 132.571C293.753 128.132 304.128 121.802 309.482 118.504C314.836 115.205 324.059 109.559 329.977 105.957C335.895 102.354 342.539 98.2833 344.744 96.9102C346.947 95.537 348.964 94.4134 349.225 94.4134C349.515 94.4134 349.75 132.105 349.829 190.944L349.959 287.474L353.649 285.09C359.391 281.381 369.533 275.129 380.188 268.729C385.542 265.514 390.269 262.501 390.692 262.035C391.372 261.284 391.43 247.316 391.204 140.653L390.948 20.1184L386.849 22.6116Z" fill="#073B4C"/><path fill-rule="evenodd" clip-rule="evenodd" d="M381.725 285.339C376.935 288.316 368.058 293.811 361.999 297.55C355.941 301.288 344.182 308.557 335.869 313.702C327.556 318.847 317.411 325.067 313.325 327.524C305.497 332.231 286.152 344.526 281.231 347.922C280.353 348.528 280.38 348.563 281.559 348.362C282.263 348.241 288.834 346.636 296.161 344.793C303.488 342.95 311.557 341.06 314.094 340.592C316.63 340.124 321.587 339.086 325.109 338.284C328.632 337.482 334.626 336.22 338.431 335.48C350.783 333.077 377.454 327.504 384.415 325.872L391.204 324.281V302.085C391.204 289.877 391.031 279.897 390.82 279.906C390.608 279.917 386.516 282.361 381.725 285.339Z" fill="#073B4C"/><path fill-rule="evenodd" clip-rule="evenodd" d="M323.032 128.413C316.425 132.459 307.112 138.223 302.336 141.222C297.56 144.221 293.467 146.674 293.241 146.674C293.015 146.674 292.83 174.32 292.83 208.109V269.544L290.397 270.966C289.058 271.749 285.081 274.273 281.559 276.576C278.036 278.88 272.474 282.376 269.198 284.346C265.922 286.315 262.349 288.554 261.256 289.322C260.164 290.089 257.542 291.84 255.428 293.213C251.862 295.53 251.503 295.657 250.449 294.971C249.823 294.564 247.633 293.187 245.582 291.909C241.308 289.249 229.464 281.606 226.608 279.666L224.686 278.361V253.507C224.686 239.837 224.56 228.652 224.405 228.652C223.773 228.652 220.592 230.511 216.368 233.348C213.906 235.001 208.488 238.447 204.327 241.005C200.167 243.563 193.132 247.992 188.693 250.847L180.623 256.037L180.643 279.875L180.663 303.713L186.537 307.3C204.458 318.24 238.121 339.557 243.388 343.298C244.515 344.099 246.359 345.309 247.486 345.987C248.614 346.666 249.613 347.403 249.707 347.626C250.168 348.724 252.563 347.659 258.455 343.738C262.003 341.376 267.212 338.062 270.03 336.373C272.848 334.683 277.46 331.853 280.278 330.082C288.996 324.604 303.941 315.353 313.325 309.623C318.256 306.612 325.192 302.348 328.736 300.148L335.182 296.148L335.302 208.602C335.367 160.452 335.337 121.056 335.233 121.056C335.129 121.056 329.638 124.367 323.032 128.413Z" fill="#D62828"/></svg>