<svg width="516" height="476" viewBox="95 12 322 466" xmlns="http://www.w3.org/2000/svg"><rect x="-9999" y="-9999" width="99999" height="99999" fill="#0B2A36"/><g><path fill-rule="evenodd" clip-rule="evenodd" d="M386.849 22.6116C384.595 23.9832 373.527 30.6341 362.256 37.3917C350.984 44.1492 334.959 53.7893 326.646 58.8145C318.333 63.8398 310.264 68.6836 308.714 69.5792C307.164 70.4743 295.29 77.6141 282.327 85.4455C251.078 104.325 251.375 104.148 250.796 104.148C250.384 104.148 198.67 78.0199 195.226 76.0714C193.671 75.1922 163.628 59.5754 158.079 56.7625C155.402 55.4053 147.909 51.4785 141.428 48.0365C129.069 41.4736 121.395 37.5413 120.944 37.5413C120.797 37.5413 120.677 97.7181 120.677 171.268C120.677 244.817 120.805 304.994 120.96 304.994C121.116 304.994 127.283 301.226 134.666 296.62C142.048 292.014 151.489 286.22 155.646 283.743L163.203 279.24V194.287V109.332L172.554 114.097C177.696 116.718 193.663 124.966 208.035 132.426C254.443 156.515 250.68 154.685 252.037 153.828C262.578 147.18 275.71 139.062 286.426 132.571C293.753 128.132 304.128 121.802 309.482 118.504C314.836 115.205 324.059 109.559 329.977 105.957C335.895 102.354 342.539 98.2833 344.744 96.9102C346.947 95.537 348.964 94.4134 349.225 94.4134C349.515 94.4134 349.75 132.105 349.829 190.944L349.959 287.474L353.649 285.09C359.391 281.381 369.533 275.129 380.188 268.729C385.542 265.514 390.269 262.501 390.692 262.035C391.372 261.284 391.43 247.316 391.204 140.653L390.948 20.1184L386.849 22.6116Z" fill="#FFFFFF"/><path fill-rule="evenodd" clip-rule="evenodd" d="M381.725 285.339C376.935 288.316 368.058 293.811 361.999 297.55C355.941 301.288 344.182 308.557 335.869 313.702C327.556 318.847 317.411 325.067 313.325 327.524C305.497 332.231 286.152 344.526 281.231 347.922C280.353 348.528 280.38 348.563 281.559 348.362C282.263 348.241 288.834 346.636 296.161 344.793C303.488 342.95 311.557 341.06 314.094 340.592C316.63 340.124 321.587 339.086 325.109 338.284C328.632 337.482 334.626 336.22 338.431 335.48C350.783 333.077 377.454 327.504 384.415 325.872L391.204 324.281V302.085C391.204 289.877 391.031 279.897 390.82 279.906C390.608 279.917 386.516 282.361 381.725 285.339Z" fill="#FFFFFF"/><path fill-rule="evenodd" clip-rule="evenodd" d="M323.032 128.413C316.425 132.459 307.112 138.223 302.336 141.222C297.56 144.221 293.467 146.674 293.241 146.674C293.015 146.674 292.83 174.32 292.83 208.109V269.544L290.397 270.966C289.058 271.749 285.081 274.273 281.559 276.576C278.036 278.88 272.474 282.376 269.198 284.346C265.922 286.315 262.349 288.554 261.256 289.322C260.164 290.089 257.542 291.84 255.428 293.213C251.862 295.53 251.503 295.657 250.449 294.971C249.823 294.564 247.633 293.187 245.582 291.909C241.308 289.249 229.464 281.606 226.608 279.666L224.686 278.361V253.507C224.686 239.837 224.56 228.652 224.405 228.652C223.773 228.652 220.592 230.511 216.368 233.348C213.906 235.001 208.488 238.447 204.327 241.005C200.167 243.563 193.132 247.992 188.693 250.847L180.623 256.037L180.643 279.875L180.663 303.713L186.537 307.3C204.458 318.24 238.121 339.557 243.388 343.298C244.515 344.099 246.359 345.309 247.486 345.987C248.614 346.666 249.613 347.403 249.707 347.626C250.168 348.724 252.563 347.659 258.455 343.738C262.003 341.376 267.212 338.062 270.03 336.373C272.848 334.683 277.46 331.853 280.278 330.082C288.996 324.604 303.941 315.353 313.325 309.623C318.256 306.612 325.192 302.348 328.736 300.148L335.182 296.148L335.302 208.602C335.367 160.452 335.337 121.056 335.233 121.056C335.129 121.056 329.638 124.367 323.032 128.413Z" fill="#FFFFFF"/></g><path fill-rule="evenodd" clip-rule="evenodd" d="M99.2092 420.264V386.184H123.689V393H107.561V399.768H123.113V406.584H107.561V413.448H124.073V420.264H99.2092ZM129.162 420.264V386.184H137.946L150.426 407.544V386.184H158.778V420.264H149.946L137.514 399.816V420.264H129.162ZM179.098 421.032C175.802 421.032 172.97 420.28 170.602 418.776C168.234 417.272 166.41 415.192 165.13 412.536C163.85 409.88 163.21 406.792 163.21 403.272C163.21 399.848 163.866 396.792 165.178 394.104C166.49 391.416 168.362 389.304 170.794 387.768C173.258 386.2 176.218 385.416 179.674 385.416C182.714 385.416 185.258 385.912 187.306 386.904C189.386 387.864 191.05 389.256 192.298 391.08C193.578 392.904 194.474 395.08 194.986 397.608L186.346 397.992C186.026 396.168 185.354 394.76 184.33 393.768C183.306 392.744 181.786 392.232 179.77 392.232C178.01 392.232 176.538 392.712 175.354 393.672C174.17 394.632 173.274 395.944 172.666 397.608C172.09 399.24 171.802 401.128 171.802 403.272C171.802 405.416 172.09 407.32 172.666 408.984C173.242 410.616 174.122 411.896 175.306 412.824C176.522 413.752 178.058 414.216 179.914 414.216C181.258 414.216 182.41 413.96 183.37 413.448C184.362 412.936 185.146 412.232 185.722 411.336C186.298 410.408 186.65 409.352 186.778 408.168H179.722V402.36H195.082V420.264H190.09L189.658 413.16L190.618 413.448C190.298 414.952 189.594 416.28 188.506 417.432C187.45 418.552 186.106 419.432 184.474 420.072C182.874 420.712 181.082 421.032 179.098 421.032ZM200.553 420.264V386.184H225.033V393H208.905V399.768H224.457V406.584H208.905V413.448H225.417V420.264H200.553ZM230.506 420.264V386.184H239.29L251.77 407.544V386.184H260.122V420.264H251.29L238.858 399.816V420.264H230.506ZM266.084 420.264V386.184H274.436V402.216L270.836 399.672H289.556L285.956 402.216V386.184H294.308V420.264H285.956V404.04L289.556 406.536H270.836L274.436 404.04V420.264H266.084ZM297.95 420.264L310.238 386.184H319.934L332.222 420.264H323.63L321.422 413.832H308.75L306.494 420.264H297.95ZM311.006 407.208H319.166L315.134 395.208L311.006 407.208ZM335.037 420.264V386.184H350.637C353.165 386.184 355.357 386.6 357.213 387.432C359.101 388.264 360.557 389.448 361.581 390.984C362.605 392.488 363.117 394.264 363.117 396.312C363.117 397.912 362.797 399.32 362.157 400.536C361.517 401.752 360.621 402.76 359.469 403.56C358.349 404.328 357.005 404.84 355.437 405.096L355.293 404.616C357.629 404.616 359.389 405.112 360.573 406.104C361.789 407.096 362.461 408.584 362.589 410.568L363.405 420.264H354.861L354.333 411.96C354.237 410.68 353.853 409.736 353.181 409.128C352.541 408.52 351.405 408.216 349.773 408.216H343.389V420.264H335.037ZM343.389 401.4H349.341C351.037 401.4 352.333 401.032 353.229 400.296C354.125 399.56 354.573 398.52 354.573 397.176C354.573 395.8 354.109 394.76 353.181 394.056C352.285 393.352 350.973 393 349.245 393H343.389V401.4ZM368.928 420.264V386.184H377.28V420.264H368.928ZM380.919 420.264L393.207 386.184H402.903L415.191 420.264H406.599L404.391 413.832H391.719L389.463 420.264H380.919ZM393.975 407.208H402.135L398.103 395.208L393.975 407.208ZM131.923 472.264V443.864H143.683C147.176 443.864 149.91 444.717 151.883 446.424C153.883 448.104 154.883 450.411 154.883 453.344C154.883 455.291 154.43 456.984 153.523 458.424C152.643 459.837 151.363 460.931 149.683 461.704C148.003 462.477 146.003 462.864 143.683 462.864H138.883V472.264H131.923ZM138.883 457.144H143.203C144.616 457.144 145.723 456.824 146.523 456.184C147.35 455.544 147.763 454.597 147.763 453.344C147.763 452.117 147.363 451.184 146.563 450.544C145.763 449.877 144.643 449.544 143.203 449.544H138.883V457.144ZM158.29 472.264V443.864H171.29C173.397 443.864 175.224 444.211 176.77 444.904C178.344 445.597 179.557 446.584 180.41 447.864C181.264 449.117 181.69 450.597 181.69 452.304C181.69 453.637 181.424 454.811 180.89 455.824C180.357 456.837 179.61 457.677 178.65 458.344C177.717 458.984 176.597 459.411 175.29 459.624L175.17 459.224C177.117 459.224 178.584 459.637 179.57 460.464C180.584 461.291 181.144 462.531 181.25 464.184L181.93 472.264H174.81L174.37 465.344C174.29 464.277 173.97 463.491 173.41 462.984C172.877 462.477 171.93 462.224 170.57 462.224H165.25V472.264H158.29ZM165.25 456.544H170.21C171.624 456.544 172.704 456.237 173.45 455.624C174.197 455.011 174.57 454.144 174.57 453.024C174.57 451.877 174.184 451.011 173.41 450.424C172.664 449.837 171.57 449.544 170.13 449.544H165.25V456.544ZM186.532 472.264V443.864H206.932V449.544H193.492V455.184H206.452V460.864H193.492V466.584H207.252V472.264H186.532ZM220.164 472.264L209.884 443.864H217.044L224.204 464.424L231.324 443.864H238.484L228.164 472.264H220.164ZM240.751 472.264V443.864H261.151V449.544H247.711V455.184H260.671V460.864H247.711V466.584H261.471V472.264H240.751ZM265.712 472.264V443.864H273.032L283.432 461.664V443.864H290.392V472.264H283.032L272.672 455.224V472.264H265.712ZM300.933 472.264V449.544H292.533V443.864H316.333V449.544H307.933V472.264H300.933ZM318.876 472.264V443.864H325.836V472.264H318.876ZM338.445 472.264L328.165 443.864H335.325L342.485 464.424L349.605 443.864H356.765L346.445 472.264H338.445ZM353.517 472.264L363.757 443.864H371.837L382.077 472.264H374.917L373.077 466.904H362.517L360.637 472.264H353.517ZM364.397 461.384H371.197L367.837 451.384L364.397 461.384Z" fill="#FFFFFF"/></svg>