<svg xmlns="http://www.w3.org/2000/svg" viewBox="-49.5103 27.1355 1.1832 0.9723" role="img" aria-label="Mapa da mesorregião Grande Florianópolis, Santa Catarina" preserveAspectRatio="xMidYMid meet">
  <g transform="scale(0.0001,-0.0001)">
    <path d="M-485413 -279374h0h0h0Z M-485049 -278919h0h0h0Z M-485041 -278915h0h0h0Z M-484902 -278812h0h0h0Z M-484906 -278796h0h0h0Z M-484888 -278808h0h0h0Z M-484903 -278786h0h0h0Z M-485009 -278404h0h0h0Z M-484998 -278381h0h0h0Z M-485041 -278348h0h0h0Z M-485186 -278347h0h0h0Z M-485280 -278337h0h0h0Z M-484683 -277045h0h0h0Z M-483913 -276109h0h0h0Z M-483892 -276109h0h0h0Z M-483865 -276120h0h0h0Z M-483615 -274879h0h0h0Z M-483553 -274896h0h0h0Z M-483479 -274440h0h0h0Z M-483495 -274407h0h0h0Z M-483488 -274398h0h0h0Z M-483498 -274391h0h0h0Z M-483493 -274389h0h0h0Z M-483661 -274260h0h0h0Z M-483532 -274199h0h0h0Z M-483560 -274191h0h0h0Z M-483568 -274187h0h0h0Z M-483546 -274187h0h0h0Z M-485324 -273669h0h0h0Z M-485224 -273337h0h0h0Z M-485271 -273302h0h0h0Z M-485246 -273292h0h0h0Z M-485255 -273287h0h0h0Z M-485317 -273041h0h0h0Z M-485526 -273034h0h0h0Z M-485527 -273029h0h0h0Z M-483601 -272982h0h0h0Z M-483497 -272966h0h0h0Z M-483491 -272966h0h0h0Z M-485499 -272904h0h0h0Z M-485491 -272895h0h0h0Z M-483788 -272799h0h0h0Z M-483347 -272792h0h0h0Z M-483344 -272789h0h0h0Z M-483343 -272785h0h0h0Z M-483341 -272781h0h0h0Z M-483312 -272755h0h0h0Z M-483705 -272722l120 -211l-176 75l56 136Z M-483271 -272702h0h0h0Z M-483283 -272695h0h0h0Z M-483318 -272686h0h0h0Z M-484216 -272514h0h0h0Z M-484240 -272519h0h0h0Z M-486025 -272180l-141 -440l145 -457l176 -121l312 58l144 148l12 -264l120 -183l-111 -135l41 -421l-164 -115l-30 -226l-328 -212l324 130l198 142l65 194l428 300l667 -22l51 -244l218 -319l202 -65l-150 -403l-255 -294l-156 -294l-6 -297l135 4l-227 -355l32 -64l-222 -211l-229 -366l-37 -196l-194 -206l-61 -350l312 -240l-221 -245l-91 120l-278 -128l-102 -346l-211 -29l-300 -181l-47 -244l274 -101l-477 -591l-285 -213l-77 -213l-300 -309l-201 -79l-157 -343l121 -2l39 -218l-1006 -108l-23 150l-280 65l-561 -80l-75 189l-307 -114l-178 -348l-195 -6l-46 269l-333 281l-152 40l-168 253l44 97l-169 236l-536 -167l-422 9l-48 330l-86 54l-160 -141l-154 111l-671 185l-341 167l-152 -49l28 254l241 414l-147 -14l-231 455l-199 -65l-179 235l-246 -19l-390 327l-149 238l-229 -30l-141 306l145 205l-106 234l-353 332l-61 189l25 338l341 344l276 -170l174 -1l158 208l580 -2l327 -266l87 64l-125 228l77 126l-84 227l332 513l-62 226l37 266l-103 61l-40 239l177 230l-47 113l184 238l533 151l216 270l307 -11l398 157l213 -7l381 93l83 -66l274 52l166 162l349 92l267 230l666 414l107 -7l231 195l475 279l122 -195l210 40l44 148l207 8l122 -131l441 114l214 -322l-121 -72l52 -185l224 -213l533 59l50 -75Z" fill="#073B4C" stroke="#0B2A36" stroke-width="1.5" stroke-linejoin="round" vector-effect="non-scaling-stroke"/>
  </g>
</svg>
